<?xml version="1.0" encoding="UTF-8"?>
<svg version="1.1" xmlns="http://www.w3.org/2000/svg" width="1000" height="964">
<path d="M0 0 C3.86434463 0.62623767 7.39997616 1.77890865 11.07836914 3.06958008 C27.63120152 8.87459698 43.5527843 11.18351345 61.0625 11.0625 C62.30966797 11.05798828 63.55683594 11.05347656 64.84179688 11.04882812 C67.89458221 11.03713163 70.94726498 11.02074086 74 11 C73.83991455 11.76860352 73.6798291 12.53720703 73.51489258 13.32910156 C71.9079427 21.66482069 72.92907647 29.46578301 75.0625 37.5625 C77.30385473 46.32336996 77.11210279 53.33284597 75.02734375 62.17578125 C68.3400825 91.4961509 70.5739626 123.52133381 80 152 C80.99 151.34 81.98 150.68 83 150 C82.74605469 149.14664063 82.49210937 148.29328125 82.23046875 147.4140625 C77.30919779 129.53528785 75.7498336 111.25229053 75.6875 92.75 C75.68202148 91.58573486 75.67654297 90.42146973 75.67089844 89.22192383 C75.75475762 79.08002354 76.66466954 69.04711716 79.625 59.3125 C82.32219537 49.78240969 80.96943459 41.56796043 78.42358398 32.18896484 C76.45675054 24.74703429 76.46238876 18.31429123 79 11 C80.66342837 9.33657163 82.7825709 9.63951903 85.0625 9.4375 C85.98160156 9.35371094 86.90070313 9.26992188 87.84765625 9.18359375 C88.55792969 9.12300781 89.26820313 9.06242187 90 9 C90.81642254 10.26831693 91.62799105 11.53975931 92.4375 12.8125 C92.88996094 13.52019531 93.34242188 14.22789062 93.80859375 14.95703125 C95.75346305 18.29200386 96.11906628 20.91652569 96.08178711 24.69580078 C96.0752562 25.64754181 96.06872528 26.59928284 96.06199646 27.5798645 C96.05056107 28.60796234 96.03912567 29.63606018 96.02734375 30.6953125 C96.01468934 32.87760253 96.00232899 35.05989429 95.99023438 37.2421875 C95.96549375 40.6784401 95.93760151 44.11460294 95.90405273 47.55078125 C95.8736667 50.86979717 95.85601278 54.18870097 95.83984375 57.5078125 C95.82638412 58.52376495 95.8129245 59.53971741 95.79905701 60.5864563 C95.78022884 65.9954439 96.17551621 70.88516865 97.5353241 76.1293335 C99.99869425 86.04623257 97.36633177 96.87206405 95.42333984 106.65283203 C94.22255138 112.85351972 93.75226171 118.68611445 94 125 C94.99 125 95.98 125 97 125 C97.81618768 121.14660485 98.62728585 117.29215519 99.4375 113.4375 C99.66759766 112.35146484 99.89769531 111.26542969 100.13476562 110.14648438 C101.85503808 101.94402587 103.1798536 94.07559536 103.1875 85.6875 C103.19974609 84.99205078 103.21199219 84.29660156 103.22460938 83.58007812 C103.23527605 79.70096302 102.87855052 76.20301567 101.98901367 72.42382812 C100.83436378 66.81682971 100.81170574 61.47329271 100.9453125 55.76953125 C100.97058519 53.64649065 100.99530855 51.52344346 101.01953125 49.40039062 C101.06925002 46.09556891 101.1254304 42.79110118 101.19189453 39.48657227 C101.252422 36.26836957 101.28786066 33.05062237 101.3203125 29.83203125 C101.34723175 28.84958939 101.374151 27.86714752 101.40188599 26.85493469 C101.44743907 20.59790255 100.54036296 17.16847003 97 12 C96.3197633 10.67353844 95.64507739 9.34391123 95 8 C99.41659298 6.85388251 103.83328703 5.70815499 108.25 4.5625 C109.50425781 4.23701172 110.75851562 3.91152344 112.05078125 3.57617188 C113.25605469 3.26357422 114.46132813 2.95097656 115.703125 2.62890625 C117.36843262 2.1968689 117.36843262 2.1968689 119.06738281 1.75610352 C121.37602547 1.16087655 123.68665444 0.57650996 126 0 C127.35297859 6.39371135 128.4508594 12.75538097 129.23339844 19.24267578 C129.39510985 20.54539067 129.39510985 20.54539067 129.56008816 21.87442303 C129.91360721 24.73093734 130.26161305 27.58809204 130.609375 30.4453125 C130.85916051 32.47599693 131.10919127 34.50665121 131.35945129 36.53727722 C132.02489189 41.9482155 132.68474049 47.35981965 133.34245682 52.77170181 C133.75085169 56.13200776 134.16014326 59.49220362 134.56954956 62.85238647 C145.43649833 152.11504943 145.43649833 152.11504943 147.59686279 188.49621582 C148.65225913 206.06711717 150.34118011 223.56026771 152.1875 241.0625 C152.26115784 241.76081184 152.33481567 242.45912369 152.41070557 243.1785965 C155.96823652 276.82011161 159.95512887 310.41412442 164 344 C160.76521595 345.61739203 157.50833236 345.45640154 154 345 C152.47277626 344.37769106 150.96523596 343.70569372 149.4765625 342.99609375 C143.55323692 340.5356943 138.21033974 340.54043405 131.875 340.75 C130.823125 340.76804687 129.77125 340.78609375 128.6875 340.8046875 C126.12400578 340.85129649 123.56251906 340.9166973 121 341 C121.47881807 332.65625542 122.29864921 324.49341252 123.51147461 316.22509766 C128.70662774 279.92577785 125.72517346 243.3256894 122 207 C121.99635437 207.99160629 121.99270874 208.98321259 121.98895264 210.00486755 C121.95142825 219.51611568 121.89306063 229.02705703 121.81609726 238.53806973 C121.77718458 243.42358355 121.74472979 248.30893223 121.72900391 253.19458008 C121.6258797 283.04234832 119.71650403 311.65284714 114 341 C105.17850727 339.17260576 97.16732286 336.21981034 88.85644531 332.78125 C88.02725586 332.43835938 87.19806641 332.09546875 86.34375 331.7421875 C85.60318359 331.4313623 84.86261719 331.12053711 84.09960938 330.80029297 C77.71849524 328.3680497 70.22818661 327.70766389 63.6484375 329.71875 C60.32034074 331.31212451 57.85787684 333.12397978 55.0625 335.5625 C50.62538503 339.0940813 46.28626676 341.16534676 40.515625 340.875 C34.62040405 339.84974418 29.33620085 337.65521105 24 335 C24.58031273 329.84343606 25.39205631 324.91033044 26.6015625 319.85546875 C26.9276977 318.46506388 27.25284502 317.07442702 27.57714844 315.68359375 C27.74790894 314.95382324 27.91866943 314.22405273 28.09460449 313.47216797 C35.96039842 279.59041901 44.6633546 241.96414382 44 207 C43.90945343 207.55295746 43.81890686 208.10591492 43.72561646 208.67562866 C39.43497355 234.82953045 34.97661357 260.94029549 29.8125 286.9375 C29.51608612 288.4495401 29.51608612 288.4495401 29.21368408 289.99212646 C27.10954116 300.68809505 24.78184384 311.28766397 21.94921875 321.81640625 C21.7152388 322.69312485 21.48125885 323.56984344 21.2401886 324.47312927 C16.57023586 341.32521648 16.57023586 341.32521648 11.5625 344.875 C2.92008761 349.37032073 -6.53313332 351.25102227 -16.0625 352.8125 C-17.29480347 353.01673584 -17.29480347 353.01673584 -18.55200195 353.22509766 C-19.71928833 353.40177979 -19.71928833 353.40177979 -20.91015625 353.58203125 C-21.94861694 353.74022339 -21.94861694 353.74022339 -23.00805664 353.90161133 C-25.19890524 354.00982459 -26.90919182 353.63060765 -29 353 C-28.61328125 352.52433594 -28.2265625 352.04867188 -27.828125 351.55859375 C-20.27970025 341.41306246 -18.7833868 328.56721046 -16.48193359 316.4050293 C-15.63008705 311.93489367 -14.62824298 307.56027189 -13.44921875 303.1640625 C-11.87937598 296.97384784 -11.2709098 290.92422701 -10.875 284.5625 C-10.80152344 283.57185547 -10.72804688 282.58121094 -10.65234375 281.56054688 C-9.01582174 257.71613405 -8.87655939 233.83480084 -8.92303085 209.94759178 C-8.93172955 204.87212565 -8.92581313 199.79673015 -8.91702271 194.7212677 C-8.9155517 193.84808889 -8.91408069 192.97491008 -8.91256511 192.07527131 C-8.90949519 190.2918694 -8.90637518 188.50846757 -8.90320611 186.72506583 C-8.88245393 174.97653715 -8.86791573 163.2282536 -8.90039062 151.47973633 C-9.03096665 100.97928639 -8.61882708 49.93020115 0 0 Z M45 194 C46 197 46 197 46 197 Z " fill="#FFFFFF" transform="translate(350,276)"/>
<path d="M0 0 C11.26522493 6.19368771 21.52846244 14.08217804 25.25 26.75 C25.47026855 27.48412109 25.69053711 28.21824219 25.91748047 28.97460938 C30.07142426 42.98485435 33.36307976 57.23719632 36.6809082 71.46362305 C37.25312122 73.88890335 37.25312122 73.88890335 38.25 76.75 C38.33209792 78.52313851 38.35746294 80.29920775 38.34765625 82.07421875 C38.34443359 83.10224609 38.34121094 84.13027344 38.33789062 85.18945312 C38.32951172 86.26130859 38.32113281 87.33316406 38.3125 88.4375 C38.30798828 89.52095703 38.30347656 90.60441406 38.29882812 91.72070312 C38.28703743 94.39719085 38.27058063 97.07356777 38.25 99.75 C39.24 97.44 40.23 95.13 41.25 92.75 C64.27155104 100.87775647 78.62530433 123.20106029 89.25 143.75 C89.78141602 144.68207275 90.31283203 145.61414551 90.86035156 146.57446289 C92.43933867 150.1826648 92.62321112 152.70028563 92.61328125 156.625 C92.61263672 157.94113281 92.61199219 159.25726563 92.61132812 160.61328125 C92.60302979 161.29471191 92.59473145 161.97614258 92.58618164 162.67822266 C92.56287852 164.71688553 92.56559332 166.75420891 92.57226562 168.79296875 C92.5443908 185.47301026 88.94104946 200.80289897 84.875 216.875 C78.28154381 243.02933555 73.35071608 266.71911994 75.25 293.75 C71.71704581 289.83715827 69.90767231 285.89130734 68.3125 280.9375 C68.06089111 280.16776855 67.80928223 279.39803711 67.55004883 278.60498047 C65.46137789 271.94565928 63.88008766 265.20047301 62.4375 258.375 C62.23068604 257.40199951 62.02387207 256.42899902 61.81079102 255.42651367 C59.34686065 243.16698301 59.00842319 230.72630268 58.49609375 218.265625 C58.43047592 216.71334951 58.3646405 215.16108321 58.29859924 213.60882568 C58.12712262 209.56486717 57.95856044 205.52079249 57.79064941 201.47668457 C57.6180866 197.33333902 57.44270629 193.19011277 57.26757812 189.046875 C56.925661 180.94802946 56.5868293 172.84905873 56.25 164.75 C56.20210831 165.55686752 56.15421661 166.36373505 56.10487366 167.1950531 C55.65128474 174.83006925 55.19546987 182.46494782 54.73720646 190.09968472 C54.50173364 194.02398632 54.2670966 197.94833404 54.03442383 201.87280273 C53.80950078 205.66602194 53.58231147 209.45909945 53.35360527 213.25209236 C53.26710111 214.69317955 53.18138893 216.13431453 53.09651375 217.57549858 C52.65923461 224.99177245 52.16435814 232.37465206 51.25 239.75 C36.4429884 245.88731265 36.4429884 245.88731265 28.25 245.75 C28.36593506 245.18079834 28.48187012 244.61159668 28.60131836 244.02514648 C29.1321271 241.41301573 29.65983419 238.80026738 30.1875 236.1875 C30.36990234 235.29224609 30.55230469 234.39699219 30.74023438 233.47460938 C32.62941353 224.09741104 33.37962077 215.32753491 33.25 205.75 C33.11424561 206.60118408 32.97849121 207.45236816 32.83862305 208.3293457 C32.32337519 211.54141347 31.8027095 214.75251149 31.27856445 217.96313477 C31.05444323 219.34267547 30.83237511 220.72255159 30.61254883 222.1027832 C27.43079546 242.05578327 27.43079546 242.05578327 25.25 246.75 C22.20363575 248.73263942 19.86415104 249.27890015 16.25 248.75 C14.57916181 247.42189785 12.91270287 246.08827304 11.25 244.75 C8.06237891 243.95309162 8.06237891 243.95309162 5.25 243.75 C4.92 246.06 4.59 248.37 4.25 250.75 C0.26644868 250.77493556 -3.71707167 250.79297028 -7.70068359 250.80493164 C-9.71323241 250.81236421 -11.72575949 250.82507829 -13.73828125 250.83789062 C-31.36494886 250.88217873 -31.36494886 250.88217873 -34.6328125 248.2109375 C-41.95225701 235.91979483 -45.96218649 222.44311343 -49.75 208.75 C-47.9058537 222.00386445 -45.19670712 234.82144245 -41.75 247.75 C-48.26564718 247.22381114 -53.90756479 245.97476452 -60.0625 243.8125 C-60.84689453 243.54759766 -61.63128906 243.28269531 -62.43945312 243.00976562 C-64.55718595 242.28466254 -66.66314916 241.55978011 -68.75 240.75 C-69.46269043 240.49428223 -70.17538086 240.23856445 -70.90966797 239.97509766 C-72.75 238.75 -72.75 238.75 -73.63208008 236.58325195 C-73.82181396 235.62378662 -74.01154785 234.66432129 -74.20703125 233.67578125 C-74.44502441 232.50611816 -74.68301758 231.33645508 -74.92822266 230.13134766 C-75.20319382 228.6710949 -75.47700601 227.21062368 -75.75 225.75 C-76.10806564 223.89492381 -76.4666659 222.03995077 -76.82568359 220.18505859 C-78.05653676 213.77415907 -79.24805114 207.35618656 -80.4375 200.9375 C-80.85716767 198.68419743 -81.27708746 196.43094181 -81.69726562 194.17773438 C-82.71775198 188.70236088 -83.73512109 183.22641548 -84.75 177.75 C-84.68735962 178.37925385 -84.62471924 179.00850769 -84.56018066 179.65682983 C-83.90550555 186.2431435 -83.25770075 192.83010791 -82.61376953 199.41748047 C-82.37299635 201.87142784 -82.13050853 204.32520764 -81.88623047 206.77880859 C-81.53415438 210.31825108 -81.18837625 213.8582628 -80.84375 217.3984375 C-80.7343811 218.48426117 -80.62501221 219.57008484 -80.5123291 220.68881226 C-80.41222534 221.72913605 -80.31212158 222.76945984 -80.20898438 223.84130859 C-80.12015991 224.74287689 -80.03133545 225.64444519 -79.93981934 226.57333374 C-79.48725743 234.14705188 -79.7818063 241.63645615 -80.4050293 249.18994141 C-80.51002495 250.51954391 -80.51002495 250.51954391 -80.61714172 251.87600708 C-80.84831294 254.78490893 -81.08573024 257.69325195 -81.32421875 260.6015625 C-81.49161704 262.66295252 -81.65900058 264.72434374 -81.82637024 266.78573608 C-82.17886625 271.11149111 -82.5351022 275.43692154 -82.89331055 279.76220703 C-83.25447361 284.13079039 -83.60825624 288.49986456 -83.95483398 292.86962891 C-85.87281957 317.03053098 -88.10763257 340.92714607 -92.26887512 364.81385803 C-94.70513818 379.68154525 -93.39487972 393.88733682 -91.75 408.75 C-100.27369825 406.06221362 -104.52240252 397.19470121 -108.49609375 389.71875 C-118.99239384 369.05603874 -126.73764279 347.1772349 -127.1875 323.875 C-127.91548044 293.02576277 -127.91548044 293.02576277 -140.75 265.75 C-144.49461204 262.69518492 -147.94463967 261.91017868 -152.75 261.75 C-158.79892992 262.85468046 -162.95945895 265.28685018 -167.33984375 269.54296875 C-168.75 270.75 -168.75 270.75 -170.75 270.75 C-167.49465773 258.7052336 -159.77854682 249.87487558 -151.75 240.75 C-138.30770875 225.46166875 -133.18431893 204.73015581 -127.92041016 185.50927734 C-123.93646278 171.03209152 -118.96737265 157.41188817 -112.75 143.75 C-112.29157715 142.73437988 -111.8331543 141.71875977 -111.36083984 140.67236328 C-96.95288659 108.97087914 -96.95288659 108.97087914 -85.125 103.5 C-80.31496824 101.16980684 -76.14254998 98.31517807 -71.87890625 95.10546875 C-69.75 93.75 -69.75 93.75 -66.75 93.75 C-65.76 97.71 -64.77 101.67 -63.75 105.75 C-63.67523438 104.23277344 -63.60046875 102.71554688 -63.5234375 101.15234375 C-62.55416229 84.51466197 -60.01079412 68.53223391 -56.50830078 52.27685547 C-55.82230366 49.08628417 -55.1725244 45.89040455 -54.52734375 42.69140625 C-52.45378038 32.9233223 -50.1126344 25.87972154 -42.75 18.75 C-41.98558594 17.92628906 -41.22117187 17.10257813 -40.43359375 16.25390625 C-29.52301313 4.74788463 -16.55026234 -7.51280267 0 0 Z M-16.0625 34 C-16.84238281 34.04640625 -17.62226563 34.0928125 -18.42578125 34.140625 C-24.51921645 35.73823154 -27.44805328 40.83688364 -30.4375 45.9375 C-30.83324219 46.6073291 -31.22898437 47.2771582 -31.63671875 47.96728516 C-34.40754435 52.8103794 -36.19928944 57.15816973 -36.75 62.75 C-36.87890625 63.554375 -37.0078125 64.35875 -37.140625 65.1875 C-38.0227329 70.23258411 -38.0227329 70.23258411 -35.75 74.75 C-32.71133201 75.16137202 -29.82840297 74.88193156 -26.75 74.75 C-25.76 77.72 -24.77 80.69 -23.75 83.75 C-22.43 83.75 -21.11 83.75 -19.75 83.75 C-19.75 85.07 -19.75 86.39 -19.75 87.75 C-19.09 87.75 -18.43 87.75 -17.75 87.75 C-17.75 86.43 -17.75 85.11 -17.75 83.75 C-16.76 83.75 -15.77 83.75 -14.75 83.75 C-14.75 85.07 -14.75 86.39 -14.75 87.75 C-13.76 87.75 -12.77 87.75 -11.75 87.75 C-11.75 86.43 -11.75 85.11 -11.75 83.75 C-10.76 83.75 -9.77 83.75 -8.75 83.75 C-8.75 85.07 -8.75 86.39 -8.75 87.75 C-8.09 87.75 -7.43 87.75 -6.75 87.75 C-6.75 86.1 -6.75 84.45 -6.75 82.75 C-5.76 82.75 -4.77 82.75 -3.75 82.75 C-3.75 84.4 -3.75 86.05 -3.75 87.75 C-3.09 87.75 -2.43 87.75 -1.75 87.75 C-1.75 86.1 -1.75 84.45 -1.75 82.75 C-0.76 82.75 0.23 82.75 1.25 82.75 C1.745 84.73 1.745 84.73 2.25 86.75 C2.91 86.42 3.57 86.09 4.25 85.75 C4.229375 84.47125 4.20875 83.1925 4.1875 81.875 C4.125 78 4.125 78 5.25 75.75 C7.5 75.37109375 7.5 75.37109375 10.25 75.1875 C13.55759619 75.21519462 13.55759619 75.21519462 16.25 73.75 C16.64123071 67.85024092 15.55444019 62.58365945 14.125 56.875 C13.90344238 55.98820557 13.68188477 55.10141113 13.45361328 54.18774414 C11.77993729 47.89665045 9.7139364 42.61642246 5.25 37.75 C4.75757813 37.20472656 4.26515625 36.65945312 3.7578125 36.09765625 C-1.04901117 31.80140193 -10.0876844 33.62433794 -16.0625 34 Z M-34.75 79.75 C-32.02778963 91.15125755 -28.80880719 99.68960223 -18.890625 106.6171875 C-13.91486651 109.25034436 -9.52186038 109.24736432 -4.1875 107.75 C4.81257108 102.51359501 10.13802625 96.22483903 12.99609375 86.109375 C13.47636093 84.00282378 13.87256124 81.87738209 14.25 79.75 C11.28 79.75 8.31 79.75 5.25 79.75 C5.745 81.73 5.745 81.73 6.25 83.75 C6.58 83.09 6.91 82.43 7.25 81.75 C6.8708787 87.18407194 5.12118431 89.07733796 1.25 92.75 C1.25 93.74 1.25 94.73 1.25 95.75 C0.26 95.75 -0.73 95.75 -1.75 95.75 C-1.75 94.76 -1.75 93.77 -1.75 92.75 C-2.41 92.75 -3.07 92.75 -3.75 92.75 C-3.42 94.4 -3.09 96.05 -2.75 97.75 C-4.07 97.75 -5.39 97.75 -6.75 97.75 C-6.75 96.43 -6.75 95.11 -6.75 93.75 C-7.41 93.75 -8.07 93.75 -8.75 93.75 C-8.75 95.4 -8.75 97.05 -8.75 98.75 C-10.07 98.75 -11.39 98.75 -12.75 98.75 C-12.75 97.1 -12.75 95.45 -12.75 93.75 C-13.41 93.75 -14.07 93.75 -14.75 93.75 C-14.75 95.07 -14.75 96.39 -14.75 97.75 C-15.41 97.75 -16.07 97.75 -16.75 97.75 C-16.75 96.1 -16.75 94.45 -16.75 92.75 C-17.74 93.245 -17.74 93.245 -18.75 93.75 C-18.75 94.74 -18.75 95.73 -18.75 96.75 C-21.26083114 95.49458443 -21.62125446 94.24936512 -22.75 91.75 C-23.74 92.08 -24.73 92.41 -25.75 92.75 C-27.08333333 88.75 -28.41666667 84.75 -29.75 80.75 C-28.76 81.08 -27.77 81.41 -26.75 81.75 C-26.75 81.09 -26.75 80.43 -26.75 79.75 C-29.39 79.75 -32.03 79.75 -34.75 79.75 Z M-25.75 85.75 C-25.09 86.41 -24.43 87.07 -23.75 87.75 C-23.75 87.09 -23.75 86.43 -23.75 85.75 C-24.41 85.75 -25.07 85.75 -25.75 85.75 Z M36.25 103.75 C37.25 105.75 37.25 105.75 37.25 105.75 Z M-62.75 106.75 C-61.75 108.75 -61.75 108.75 -61.75 108.75 Z M-51.75 200.75 C-50.75 204.75 -50.75 204.75 -50.75 204.75 Z " fill="#FFFFFF" transform="translate(423.75,30.25)"/>
<path d="M0 0 C6.0775943 3.96364846 7.87247268 11.09504163 9.5 17.875 C13.90883464 40.79593008 14.88705515 64.21606909 15.32055664 87.49467468 C15.37635709 90.47882588 15.43664679 93.46285846 15.49804688 96.44689941 C15.67149188 104.91581528 15.83667536 113.38488751 16 121.85400391 C16.10083819 127.06726165 16.2063538 132.28040813 16.31469727 137.49351501 C16.35484472 139.47432257 16.3930986 141.45516943 16.42944336 143.43605042 C16.47985345 146.18338588 16.53612863 148.93054213 16.59375 151.67773438 C16.60728516 152.49834854 16.62082031 153.31896271 16.63476562 154.16444397 C16.37882708 157.82210912 16.37882708 157.82210912 17.875 160.875 C32.53061636 118.94615668 45.69317758 76.65863777 57.11254883 33.7331543 C60.11029391 22.49568978 60.11029391 22.49568978 62.875 20.875 C66.66670715 20.39241909 68.95532602 20.35620955 72.3125 22.25 C75.61663338 27.80094408 74.15303805 34.33393228 72.64381409 40.35536194 C71.68628706 43.93885046 70.66155023 47.50119664 69.625 51.0625 C69.16953348 52.65910394 68.71463115 54.25586892 68.26025391 55.8527832 C66.82502164 60.86808014 65.35621172 65.87310933 63.875 70.875 C63.52701355 72.0501416 63.52701355 72.0501416 63.17199707 73.24902344 C57.31551226 92.96871986 51.06546068 112.56600341 44.71881104 132.13272095 C44.0463915 134.20595151 43.37538389 136.2796407 42.70599365 138.35385132 C39.08458455 149.55720455 35.29660528 160.68359102 31.19921875 171.72265625 C30.84213333 172.6925499 30.48504791 173.66244354 30.11714172 174.66172791 C24.09707046 190.65292954 24.09707046 190.65292954 19.875 194.875 C15.22257124 195.50904781 11.07835963 195.43984228 6.8125 193.4375 C4.875 191.875 4.875 191.875 3.875 190.875 C3.83537772 188.66697569 3.86443353 186.45773079 3.91796875 184.25 C3.94420132 182.77379287 3.96859129 181.29755221 3.99145508 179.82128906 C4.00399323 179.0211438 4.01653137 178.22099854 4.02944946 177.39660645 C4.64647553 130.32030918 -0.12702528 82.54052451 -6.125 35.875 C-12.57741146 57.29070691 -18.28349153 78.90317848 -24.03442383 100.51495361 C-25.33406991 105.39657846 -26.63690605 110.2773517 -27.93945312 115.15820312 C-29.40873304 120.66493168 -30.87766184 126.1717529 -32.34465027 131.67909241 C-32.67727985 132.92730978 -32.67727985 132.92730978 -33.01662922 134.20074368 C-33.44688668 135.81757053 -33.87612903 137.43466792 -34.30427074 139.05205631 C-35.2910567 142.77533878 -36.29294928 146.4926521 -37.33755493 150.20016479 C-37.5261826 150.87885337 -37.71481028 151.55754194 -37.90915394 152.25679684 C-38.41309698 154.06573302 -38.92523651 155.87238034 -39.43806458 157.67881775 C-40.13378572 160.91587833 -40.22900974 163.7029853 -40.0625 167 C-39.91931787 170.84300827 -39.97987998 171.64371496 -42.125 175.0625 C-46.31632327 177.59475781 -48.27514865 177.64481767 -53.125 176.875 C-55.625 175.0625 -55.625 175.0625 -57.125 171.875 C-58.42107871 162.34094624 -55.50888953 153.18832752 -53.06640625 144.08203125 C-52.63847194 142.44833913 -52.211652 140.81435476 -51.78587341 139.18009949 C-50.66208888 134.88037141 -49.52182034 130.58517914 -48.37835693 126.29064941 C-47.47283735 122.87865097 -46.5791946 119.46360093 -45.68617916 116.04831219 C-38.44242311 88.34849107 -30.9715407 60.69058439 -22.64868164 33.29272461 C-22.16271262 31.68333802 -21.68352161 30.07189322 -21.21020508 28.45874023 C-14.82224177 6.70300401 -14.82224177 6.70300401 -6.625 1.1875 C-3.125 -0.125 -3.125 -0.125 0 0 Z " fill="#FFFFFF" transform="translate(312.125,724.125)"/>
<path d="M0 0 C12.66921262 6.7800673 18.97112447 17.23002086 23.5859375 30.5234375 C34.72436418 68.21528352 26.78063749 134.3579523 8.21337891 168.72314453 C3.3655804 176.9714775 -3.06231438 185.22381671 -12.72265625 187.75390625 C-20.50749941 189.17058265 -27.60041265 189.58023495 -34.33203125 184.96484375 C-46.63073985 174.6674043 -50.00277835 159.71863242 -51.54394531 144.30200195 C-53.03377656 123.05969493 -51.2860891 101.83314862 -48.72265625 80.75390625 C-48.57812012 79.55491699 -48.43358398 78.35592773 -48.28466797 77.12060547 C-40.11562893 11.19836021 -40.11562893 11.19836021 -23.72265625 -3.24609375 C-15.98918425 -5.82391775 -7.25851502 -3.0294159 0 0 Z M-19.72265625 17.75390625 C-25.07474319 26.70952899 -26.03967527 36.69689962 -27.33251953 46.82861328 C-27.74397669 49.91376955 -28.20879042 52.98708288 -28.6875 56.0625 C-40.23176437 114.77651059 -40.23176437 114.77651059 -29.72265625 171.75390625 C-27.6352059 174.62944072 -27.6352059 174.62944072 -24.72265625 175.75390625 C-20.18424613 176.01079739 -17.27999901 174.79175277 -13.72265625 172.12890625 C12.26521245 147.39770432 8.44414816 91.38648664 9.92332458 58.92321777 C10.10931491 54.92578052 10.32347267 50.93324979 10.59545898 46.94067383 C10.64661362 46.17157684 10.69776825 45.40247986 10.75047302 44.6100769 C10.84838777 43.16906857 10.95208781 41.72843597 11.06288147 40.2883606 C11.63881351 31.75389589 9.41851116 25.04893514 4.0078125 18.44921875 C0.06980544 14.59121635 -4.35149555 12.60047165 -9.84765625 12.19140625 C-14.49497985 12.86601774 -16.94942706 14.0588935 -19.72265625 17.75390625 Z " fill="#FFFFFF" transform="translate(446.72265625,750.24609375)"/>
<path d="M0 0 C1.93130944 14.55073025 3.58286319 29.12392978 5.12353516 43.72021484 C5.22065993 44.63996212 5.3177847 45.55970939 5.41785264 46.5073278 C5.94276997 51.48202844 6.46632165 56.45687208 6.98954391 61.43175125 C11.38800225 103.22516035 15.97705989 144.99555204 20.66117825 186.75769357 C21.78975916 196.81998635 22.91488297 206.88266253 24.03863525 216.94549561 C24.21266223 218.50359491 24.38669309 220.06169378 24.56072783 221.61979222 C25.25978703 227.87843575 25.95881368 234.13708292 26.65769148 240.39574671 C28.71565893 258.82418899 30.78228494 277.2516154 32.86291663 295.67751308 C34.38470288 309.15702884 35.8932078 322.63798503 37.38961756 336.12034166 C38.30231227 344.3394657 39.22543829 352.5572749 40.16259648 360.77364622 C40.87027608 366.9874818 41.55969094 373.20321608 42.24210548 379.41987419 C42.52424291 381.96316846 42.81242802 384.5058 43.10701942 387.04768181 C43.50681075 390.50488496 43.88508334 393.96378106 44.25790405 397.42398071 C44.44068596 398.93678161 44.44068596 398.93678161 44.62716043 400.48014414 C45.32338373 407.24486898 45.32338373 407.24486898 43.6948185 411.04771996 C40.99528361 414.15734384 38.5118282 415.74188299 34.4375 416.4375 C30.94381329 415.81042803 30.11782901 414.88780705 28 412 C27.09594824 408.41820924 26.78611197 404.80019367 26.44219971 401.12780762 C26.32454293 400.02192276 26.20688616 398.91603789 26.08566403 397.77664137 C25.70753851 394.18590438 25.35377199 390.59320966 25 387 C24.75628428 384.66030499 24.51083139 382.32079027 24.26363373 379.98146057 C23.53178935 373.00469491 22.82994184 366.02506242 22.13358378 359.04468608 C21.77127359 355.418431 21.40608901 351.79246508 21.04130554 348.16645813 C20.32947411 341.08630481 19.62021412 334.00589628 18.91189113 326.9253912 C18.07855664 318.59616824 17.24267305 310.26720163 16.40674928 301.9382382 C14.906991 286.99402239 13.40962565 272.04956778 11.91357422 257.10498047 C10.48028952 242.78740297 9.04514364 228.47001368 7.60791016 214.15283203 C6.02953743 198.42964443 4.45222294 182.70635131 2.87663007 166.98288488 C2.70607589 165.28086185 2.53552165 163.57883882 2.36496735 161.8768158 C2.28114988 161.0403524 2.19733241 160.20388901 2.11097501 159.34207824 C1.5376642 153.62123436 0.96370357 147.90045591 0.38948822 142.17970276 C-3.04185583 107.98931909 -6.43166927 73.79524098 -9.72336453 39.5910989 C-9.95845376 37.15041308 -10.19419344 34.70979085 -10.43009233 32.26918316 C-10.79699596 28.47149518 -11.16187231 24.6736179 -11.52508241 20.87557495 C-11.65859874 19.4821533 -11.79273612 18.088791 -11.92753524 16.69549286 C-12.11156225 14.79164747 -12.29295358 12.88754786 -12.47420883 10.98343658 C-12.5763657 9.91820975 -12.67852256 8.85298291 -12.78377509 7.75547647 C-12.96002669 5.50940252 -13 3.25297866 -13 1 C-11.39602723 0.83147753 -9.7918131 0.66525114 -8.1875 0.5 C-7.29417969 0.4071875 -6.40085937 0.314375 -5.48046875 0.21875 C-3 0 -3 0 0 0 Z " fill="#FFFFFF" transform="translate(549,202)"/>
<path d="M0 0 C6.67050676 0.26682027 12.34368504 2.49547446 17.1875 7.0625 C18.12252525 10.4429759 17.71964914 11.70741788 16.76171875 15.02734375 C16.47820557 16.01404053 16.19469238 17.0007373 15.90258789 18.01733398 C14.82883744 21.56561889 13.69881336 25.09261834 12.55297852 28.61816406 C7.56534192 44.10726229 3.67166456 59.85086634 -0.28457642 75.62808228 C-3.90221477 90.03478811 -7.65593545 104.34561366 -12.10913086 118.51855469 C-15.70106764 129.96236413 -18.50345181 141.54462983 -21.03515625 153.26171875 C-21.20251785 154.03611801 -21.36987946 154.81051727 -21.54231262 155.60838318 C-22.22533449 158.77810258 -22.90663676 161.94809547 -23.57543945 165.12084961 C-24.07462179 167.48215567 -24.58521092 169.84076067 -25.09765625 172.19921875 C-25.31809349 173.26640388 -25.31809349 173.26640388 -25.54298401 174.35514832 C-26.67405864 179.49958364 -28.26446098 183.26446098 -32 187 C-36.0330006 186.9224423 -39.16608966 186.25116843 -42.5 184 C-45 181 -45 181 -44.875 177.10546875 C-44.00401133 171.02700123 -42.23136152 165.19148057 -40.5 159.3125 C-39.86167398 157.12193943 -39.22616249 154.93055635 -38.59375 152.73828125 C-38.31208984 151.77962158 -38.03042969 150.82096191 -37.74023438 149.83325195 C-36.97476073 146.90339652 -36.45363875 143.99263268 -36 141 C-39.45434314 138.99304709 -42.9141063 136.99563221 -46.375 135 C-47.35984375 134.42765625 -48.3446875 133.8553125 -49.359375 133.265625 C-50.30039063 132.72421875 -51.24140625 132.1828125 -52.2109375 131.625 C-53.08024902 131.12226562 -53.94956055 130.61953125 -54.84521484 130.1015625 C-56.89346072 128.84827143 -56.89346072 128.84827143 -59 129 C-60.30997916 130.72690918 -60.30997916 130.72690918 -61.57421875 132.98828125 C-62.07356934 133.83511475 -62.57291992 134.68194824 -63.08740234 135.55444336 C-63.61543457 136.46460205 -64.1434668 137.37476074 -64.6875 138.3125 C-65.77659056 140.15409147 -66.86642938 141.99524064 -67.95703125 143.8359375 C-68.97136395 145.5572859 -69.98568782 147.27863951 -71 149 C-78.41828858 161.55596529 -78.41828858 161.55596529 -84 165 C-87.92395413 165.54935358 -90.69986328 165.23937849 -94 163 C-96.53931628 159.19102558 -96.55938944 157.52639287 -96 153 C-94.48495794 150.1740339 -92.5354248 147.78094185 -90.5 145.3125 C-85.26737695 138.77839546 -80.59500136 131.9971352 -76 125 C-74.73918467 123.11570988 -73.47620434 121.2328664 -72.2109375 119.3515625 C-58.50841536 98.91543168 -45.37631281 78.20811953 -32.81835938 57.04882812 C-31.06639323 54.11132098 -29.29430224 51.18701655 -27.515625 48.265625 C-21.57632882 38.45381123 -16.11208005 28.61390881 -11.4206543 18.13769531 C-8.46577433 11.61252593 -5.10943722 5.10943722 0 0 Z M-7 39 C-7.48859497 39.83470825 -7.48859497 39.83470825 -7.98706055 40.6862793 C-14.02487364 50.98731712 -20.11060326 61.24845244 -26.4375 71.375 C-31.21498559 79.04028155 -35.87123704 86.76945974 -40.4375 94.5625 C-41.00460693 95.52526855 -41.57171387 96.48803711 -42.15600586 97.47998047 C-46.06188315 104.18384844 -49.60518467 111.02419464 -53 118 C-46.78381391 123.05039644 -40.24233668 126.59610176 -33 130 C-24.5238939 106.71240474 -17.18016485 82.99803236 -10.35662842 59.17736816 C-9.95480274 57.77649686 -9.54993353 56.3764947 -9.14190674 54.97741699 C-8.57913171 53.04128418 -8.03138428 51.10080224 -7.484375 49.16015625 C-7.17209961 48.06324463 -6.85982422 46.96633301 -6.53808594 45.83618164 C-6.01422071 43.07495551 -6.04436635 41.60359003 -7 39 Z " fill="#FFFFFF" transform="translate(247,702)"/>
<path d="M0 0 C5.36146116 6.52245883 6.80875086 14.11933529 8.35546875 22.203125 C8.57589844 23.25886719 8.79632812 24.31460938 9.0234375 25.40234375 C11.02431012 35.55584022 11.54222169 45.04901501 8.79296875 55.078125 C8.45652344 56.33882812 8.12007812 57.59953125 7.7734375 58.8984375 C7.18971822 61.05649201 6.55064425 63.0882345 5.70922852 65.16181946 C2.96718759 72.40320651 4.1410587 76.686384 7.1875 83.61328125 C7.59449631 84.60202744 8.00149261 85.59077362 8.42082214 86.60948181 C9.72516148 89.75745479 11.07092081 92.8857266 12.41796875 96.015625 C13.28199054 98.08937454 14.14334301 100.16423836 15.00195312 102.24023438 C18.82917823 111.43322242 22.80140886 120.55739978 27.01953125 129.578125 C27.33191238 130.24711319 27.64429352 130.91610138 27.96614075 131.60536194 C32.07897377 140.24967121 37.49298444 147.95709383 43.125 155.6640625 C45.44552262 159.25199457 46.69279934 161.83966002 46.35546875 166.140625 C45.60546875 168.953125 45.60546875 168.953125 43.60546875 170.953125 C39.15863096 171.65066818 37.09219682 171.25056993 33.23046875 168.890625 C18.96152645 155.26154558 12.26801949 131.95633741 5.15771484 114.06884766 C1.8490662 105.76053912 -1.50406753 97.48730207 -5.23828125 89.359375 C-5.67049988 88.40569031 -5.67049988 88.40569031 -6.1114502 87.43273926 C-7.55675307 84.06863312 -7.55675307 84.06863312 -10.39453125 81.953125 C-3.81849106 122.01586309 -3.81849106 122.01586309 8.50390625 160.515625 C10.10572124 165.51419661 10.29129908 169.895634 8.60546875 174.953125 C6.6796875 175.7890625 6.6796875 175.7890625 4.29296875 176.328125 C3.51308594 176.52148438 2.73320313 176.71484375 1.9296875 176.9140625 C-0.39453125 176.953125 -0.39453125 176.953125 -2.42041016 175.97509766 C-5.33477056 172.99009483 -5.63300973 169.61284002 -6.3046875 165.640625 C-6.6484833 163.80269726 -6.99249028 161.96480902 -7.33666992 160.12695312 C-7.51733002 159.12865479 -7.69799011 158.13035645 -7.88412476 157.10180664 C-12.98982763 129.0409746 -19.46605457 101.29886263 -25.92497921 73.52626038 C-29.74528789 57.09347737 -33.55013671 40.65896566 -37.01004982 24.14576721 C-37.31634781 22.68562747 -37.62510611 21.22600124 -37.93655968 19.76695251 C-41.73833799 1.89670166 -41.73833799 1.89670166 -39.08203125 -3.921875 C-36.63587047 -7.00222562 -34.81183877 -7.9634135 -30.95703125 -8.734375 C-19.04383232 -9.91693519 -9.25794691 -7.58923055 0 0 Z M-24.39453125 1.953125 C-25.61753198 5.52554731 -25.18117404 8.12512927 -24.43823242 11.79150391 C-24.20436325 12.96597076 -23.97049408 14.14043762 -23.72953796 15.35049438 C-23.46816544 16.61412811 -23.20679291 17.87776184 -22.9375 19.1796875 C-22.67127883 20.49186439 -22.40560571 21.80415258 -22.14045715 23.11654663 C-21.5835231 25.86305418 -21.02043055 28.60820609 -20.45288086 31.35253906 C-19.72543951 34.87218982 -19.01269604 38.39462481 -18.30442333 41.91817665 C-17.75842416 44.62675033 -17.20506138 47.33377804 -16.64940834 50.0403862 C-16.25440494 51.97066176 -15.86535035 53.90215155 -15.47636414 55.83364868 C-15.23303848 57.00181122 -14.98971283 58.16997375 -14.73901367 59.37353516 C-14.52725998 60.40515778 -14.31550629 61.4367804 -14.09733582 62.49966431 C-13.56548865 65.1055308 -13.56548865 65.1055308 -11.39453125 66.953125 C-3.54901248 53.3542258 -3.39602271 35.36171069 -7.08203125 20.328125 C-8.94670631 13.38640613 -11.19082554 7.51608956 -16.89453125 2.953125 C-19.59333689 1.87360275 -21.51480336 1.70629118 -24.39453125 1.953125 Z " fill="#FFFFFF" transform="translate(685.39453125,749.046875)"/>
<path d="M0 0 C3.52176035 2.64588213 6.17823367 5.29090185 8.8125 8.8125 C15.21990161 16.94451065 21.11849748 21.73541835 31 25 C34 26 34 26 34.95231628 27.79689026 C35.35913383 28.97359535 35.35913383 28.97359535 35.77416992 30.17407227 C36.24562691 31.50795738 36.24562691 31.50795738 36.72660828 32.86878967 C37.05788223 33.84150314 37.38915619 34.81421661 37.73046875 35.81640625 C38.08458328 36.82025864 38.43869781 37.82411102 38.80354309 38.85838318 C39.94268194 42.08930513 41.0666937 45.32517645 42.1875 48.5625 C52.17234754 77.89440197 52.17234754 77.89440197 69.6875 103.125 C74.45646812 108.34432599 77.32042491 112.23406603 77.125 119.5625 C76.42271678 124.05100581 74.56485201 126.06166109 70.98046875 128.71484375 C62.83586626 134 62.83586626 134 60 134 C59.814375 135.3303125 59.814375 135.3303125 59.625 136.6875 C59.05587264 139.70387502 58.23385564 142.20326054 57 145 C53.0884532 143.52041491 51.7725476 141.46042529 49.75 137.875 C49.22921875 136.96492187 48.7084375 136.05484375 48.171875 135.1171875 C47.59179688 134.06917969 47.59179688 134.06917969 47 133 C46.54625 133.495 46.0925 133.99 45.625 134.5 C44 136 44 136 42 136 C41.70609375 135.29875 41.4121875 134.5975 41.109375 133.875 C37.17238113 125.54848422 32.21951595 121.09968504 24 117 C21.03622274 115.95759305 18.15094928 115.13561279 15.08203125 114.47265625 C13 114 13 114 12 113 C11.87677242 111.22096643 11.82210981 109.43713797 11.79467773 107.65405273 C11.77473251 106.5129454 11.75478729 105.37183807 11.73423767 104.19615173 C11.71752518 102.9545076 11.70081268 101.71286346 11.68359375 100.43359375 C11.66281265 99.16983414 11.64203156 97.90607452 11.62062073 96.60401917 C11.56616286 93.23881367 11.5159572 89.87359827 11.46777344 86.50830078 C11.41760241 83.07644099 11.36189345 79.64467169 11.30664062 76.21289062 C11.19929809 69.47533239 11.09755675 62.73770664 11 56 C8.03 56.495 8.03 56.495 5 57 C4.28456413 49.68627849 3.57286916 42.37219987 2.86376953 35.05786133 C2.62211782 32.56982179 2.37961093 30.08186516 2.13623047 27.59399414 C1.78648435 24.01730474 1.43981807 20.44032816 1.09375 16.86328125 C0.9843811 15.75165115 0.87501221 14.64002106 0.7623291 13.4947052 C0.66222534 12.45400375 0.56212158 11.41330231 0.45898438 10.34106445 C0.37015991 9.4283931 0.28133545 8.51572174 0.18981934 7.57539368 C0.00292053 5.03962464 -0.03365809 2.54159743 0 0 Z " fill="#FFFFFF" transform="translate(253,339)"/>
<path d="M0 0 C16.3438639 10.09282432 22.05750791 30.87707312 26.9609375 48.2109375 C29.44429973 59.40478636 28.68983769 69.60653892 22.60546875 79.390625 C19.31252886 84.06960125 15.4214158 87.6667268 10.9609375 91.2109375 C12.52852523 99.93490399 15.71146589 107.98157336 18.8984375 116.2109375 C19.18450867 116.95583435 19.47057983 117.7007312 19.76531982 118.46820068 C24.40029139 130.52816116 29.38805678 142.38519653 34.71875 154.15625 C40.99602043 168.11544913 40.99602043 168.11544913 39.9609375 174.2109375 C36.63485258 178.2022394 35.17696715 179.03721898 30.0234375 179.7734375 C27.26505327 179.15814574 26.14208522 178.41312972 24.24609375 176.296875 C22.21080514 173.04999105 20.55826223 169.68627481 18.9609375 166.2109375 C18.62433105 165.49744141 18.28772461 164.78394531 17.94091797 164.04882812 C10.03098395 147.00322496 4.35743922 129.05790129 -1.50561523 111.23510742 C-1.84121964 110.22555496 -2.17682404 109.2160025 -2.52259827 108.17585754 C-3.15668686 106.2675731 -3.78354766 104.35686594 -4.40184021 102.44340515 C-6.07203306 97.43562888 -8.09464732 93.6211971 -11.0390625 89.2109375 C-11.8684082 86.00732422 -11.8684082 86.00732422 -12.40234375 82.515625 C-13.88849965 73.97630019 -16.53962802 65.95132883 -19.38012695 57.77783203 C-20.22166747 55.35005926 -21.04238991 52.91594537 -21.86132812 50.48046875 C-26.92210275 33.18856955 -26.92210275 33.18856955 -36.0390625 18.2109375 C-36.16430709 16.42256128 -36.21479926 14.62865536 -36.2265625 12.8359375 C-36.24074219 11.85882812 -36.25492188 10.88171875 -36.26953125 9.875 C-36.0390625 7.2109375 -36.0390625 7.2109375 -34.0390625 4.2109375 C-31.38825699 3.00442469 -28.84255867 1.97377108 -26.1015625 1.0234375 C-25.33465088 0.75732666 -24.56773926 0.49121582 -23.77758789 0.21704102 C-15.84850463 -2.38878836 -7.86807057 -3.50048854 0 0 Z M-18.0390625 16.2109375 C-17.39832206 22.32591474 -15.0890218 27.76498514 -12.890625 33.453125 C-12.47743011 34.53546417 -12.06423523 35.61780334 -11.63851929 36.73294067 C-10.31895491 40.18597757 -8.99167039 43.63598619 -7.6640625 47.0859375 C-6.77812578 49.39954051 -5.89270354 51.71334059 -5.0078125 54.02734375 C-3.37773329 58.28884257 -1.7443079 62.54902939 -0.10791016 66.80810547 C1.60362721 71.26770934 3.29108313 75.73556792 4.9609375 80.2109375 C8.24682628 78.04916857 9.78322516 76.65098711 11.2734375 72.9609375 C13.61261946 60.20176319 9.70718653 47.7912444 5.5859375 35.7734375 C5.16622681 34.53158691 5.16622681 34.53158691 4.73803711 33.26464844 C2.43877167 26.80459062 -0.60346104 18.52624734 -7.0390625 15.2109375 C-11.42858901 13.99681315 -13.96818028 14.17549639 -18.0390625 16.2109375 Z " fill="#FFFFFF" transform="translate(811.0390625,705.7890625)"/>
<path d="M0 0 C2.59792234 2.22679057 4.6245032 4.48008136 6.625 7.25 C5.55098892 10.16517292 4.84689824 12.02810176 2.625 14.25 C-1.58767455 14.46420379 -4.83315452 14.38308485 -8.9375 13.375 C-12.65526578 13.23980852 -13.25908754 13.45384652 -16.0625 15.625 C-22.31718199 21.76723827 -24.06291619 29.02700218 -24.47265625 37.6015625 C-23.99826189 55.3249357 -17.49977053 71.71611457 -9.6875 87.375 C-9.06721711 88.6411656 -8.44817714 89.90794079 -7.83032227 91.17529297 C-5.06247385 96.84422999 -2.25567529 102.49262227 0.5859375 108.125 C12.69300666 132.36787519 19.17477558 160.29326038 10.84375 186.86328125 C6.78023675 198.15515941 1.29006688 208.06761264 -9.75 213.75 C-18.68628263 217.44777212 -30.06367841 217.97038816 -39.25 214.5 C-42.6198117 213.02057047 -44.47902896 211.42783826 -46.375 208.25 C-46.375 204.6875 -46.375 204.6875 -45.375 201.25 C-43.1796875 199.45703125 -43.1796875 199.45703125 -40.375 198.25 C-37.5078125 198.578125 -37.5078125 198.578125 -34.5 199.5 C-33.448125 199.79519531 -32.39625 200.09039063 -31.3125 200.39453125 C-30.343125 200.67683594 -29.37375 200.95914063 -28.375 201.25 C-23.98733803 202.31153112 -22.32347214 202.70526663 -18.25 200.75 C-8.71185761 192.45596314 -4.9666925 178.70274993 -4.1015625 166.34375 C-3.25166383 139.59987987 -14.22657598 117.31900162 -26.05493164 93.99658203 C-37.01133283 72.21793247 -47.21718178 46.03527526 -39.75 21.4375 C-35.97834487 12.25892667 -30.19466576 3.49213618 -20.9921875 -0.8828125 C-13.73689671 -3.40738077 -6.88666188 -3.57086171 0 0 Z " fill="#FFFFFF" transform="translate(539.375,727.75)"/>
<path d="M0 0 C1.28908264 -0.00974854 2.57816528 -0.01949707 3.90631104 -0.02954102 C8.06253106 -0.05683225 12.21870048 -0.06796792 16.375 -0.07421875 C17.08081711 -0.07551662 17.78663422 -0.0768145 18.51383972 -0.0781517 C76.73135669 -0.15938131 76.73135669 -0.15938131 103.375 9.23828125 C104.10267578 9.49480469 104.83035156 9.75132813 105.58007812 10.015625 C118.22520122 14.6078591 131.52219019 20.89150699 141.375 30.23828125 C141.375 30.89828125 141.375 31.55828125 141.375 32.23828125 C129.24670635 30.69502339 117.4089942 27.88349642 105.5 25.17578125 C102.44997295 24.48423903 99.39966424 23.79403348 96.34860229 23.10707092 C94.4636307 22.68249412 92.57925291 22.25526917 90.69558716 21.82493591 C48.58316644 12.32381534 1.16002874 22.9223873 -39.65039062 34.46044922 C-48.03503854 36.79718067 -48.03503854 36.79718067 -52.625 36.23828125 C-55.4375 33.80078125 -55.4375 33.80078125 -57.625 31.23828125 C-58.706172 29.92695067 -58.706172 29.92695067 -61.3125 30.17578125 C-62.405625 30.19640625 -63.49875 30.21703125 -64.625 30.23828125 C-66.6246441 30.27601038 -68.62554061 30.28478031 -70.625 30.23828125 C-72.5980625 28.26521875 -72.3437066 24.69278934 -72.6875 21.98828125 C-72.82381836 20.98474609 -72.82381836 20.98474609 -72.96289062 19.9609375 C-73.43385127 16.35614102 -73.66528198 12.86913456 -73.625 9.23828125 C-64.10082339 6.80402058 -54.5992208 5.23412209 -44.86767578 3.93066406 C-42.49547544 3.61267474 -40.12466445 3.28558343 -37.75390625 2.95703125 C-36.20840583 2.74556321 -34.66283512 2.53460816 -33.1171875 2.32421875 C-32.42728729 2.2294223 -31.73738708 2.13462585 -31.02658081 2.03695679 C-20.67574533 0.65759368 -10.44244303 0.06534239 0 0 Z " fill="#FFFFFF" transform="translate(606.625,-0.23828125)"/>
<path d="M0 0 C3.18685951 1.07090782 6.01677024 2.59706633 8.9375 4.25 C10.15107178 4.91358521 10.15107178 4.91358521 11.38916016 5.59057617 C34.66100865 18.5652064 34.66100865 18.5652064 42 27 C41.9375 29.25 41.9375 29.25 41 31 C37.96641553 32.51679223 35.27865491 32.54451159 32 32 C29.03715166 30.83281732 26.20720099 29.50978256 23.35546875 28.09375 C21.13050748 26.85961483 21.13050748 26.85961483 19 27 C18.68474365 27.680625 18.3694873 28.36125 18.04467773 29.0625 C16.50968147 32.37533858 14.973874 35.6878002 13.4375 39 C13.00658051 39.92903137 13.00658051 39.92903137 12.56695557 40.87683105 C7.54593002 51.69852517 2.48569204 62.50148717 -2.58764648 73.29873657 C-6.63054654 81.9055594 -10.62601803 90.53133864 -14.5625 99.1875 C-20.28200946 111.73704096 -26.26667671 124.15459599 -32.31738281 136.546875 C-33.90636153 139.80783191 -35.48130775 143.07524702 -37.0546875 146.34375 C-44.84662484 162.40516936 -52.78846977 177.58123697 -70 185 C-78.84066008 187.94688669 -90.5662327 186.66398501 -99 183 C-102.125 181.3125 -102.125 181.3125 -104 180 C-103.125 173.25 -103.125 173.25 -102 171 C-101.3702124 171.01571045 -100.7404248 171.0314209 -100.09155273 171.04760742 C-97.20696175 171.11040232 -94.32251514 171.14913058 -91.4375 171.1875 C-90.44685547 171.21263672 -89.45621094 171.23777344 -88.43554688 171.26367188 C-80.06811302 171.34706823 -74.07296328 169.77622284 -67.796875 164 C-52.91831769 147.43951881 -44.76148589 122.53198373 -35.58682251 102.59989929 C-32.55612446 96.02289886 -29.47625266 89.46912876 -26.39620972 82.91513062 C-20.93792705 71.29992594 -15.5212807 59.66706632 -10.1628418 48.00537109 C-6.71100937 40.50376036 -3.19352295 33.03546501 0.41162109 25.60620117 C2.321025 21.96858419 2.321025 21.96858419 3 18 C1.2893067 16.85560517 -0.47049903 15.78416025 -2.25 14.75 C-6.81040574 11.92325366 -9.8081683 9.93162132 -12 5 C-11.875 2.6875 -11.875 2.6875 -11 1 C-7.49587943 -0.75206028 -3.83032325 -0.45407561 0 0 Z " fill="#FFFFFF" transform="translate(169,670)"/>
<path d="M0 0 C1.13566406 -0.02578125 2.27132812 -0.0515625 3.44140625 -0.078125 C6.4375 0.25 6.4375 0.25 8.30859375 1.51953125 C9.89418604 3.95004124 9.89975687 6.37130492 10.03125 9.21484375 C9.07178253 12.50354474 7.31714419 13.48895775 4.4375 15.25 C1.6447237 15.82035572 -0.87367491 16.20942128 -3.6875 16.4375 C-9.20135899 16.92550316 -9.20135899 16.92550316 -14.5625 18.25 C-15.6650173 20.41621868 -15.6650173 20.41621868 -16.5625 23.25 C-16.91501831 24.13099365 -16.91501831 24.13099365 -17.2746582 25.02978516 C-26.14128279 47.2702584 -21.84291136 76.07357961 -20.01831055 99.31445312 C-19.74793326 102.77646331 -19.49701205 106.23951571 -19.24804688 109.703125 C-18.49551121 119.83226853 -17.63145115 129.91268481 -16.0703125 139.953125 C-15.95515793 140.69679321 -15.84000336 141.44046143 -15.72135925 142.20666504 C-14.12893669 151.70994941 -11.28562895 161.91551246 -3.5625 168.25 C1.83862937 171.46990405 7.26528828 172.08087466 13.4375 171.25 C14.4275 170.59 15.4175 169.93 16.4375 169.25 C18.41015625 169.203125 18.41015625 169.203125 20.5 169.5 C21.19222656 169.58765625 21.88445313 169.6753125 22.59765625 169.765625 C24.4375 170.25 24.4375 170.25 26.4375 172.25 C27.29981448 176.87019023 27.09780443 180.28017787 24.4375 184.1875 C16.78000482 189.45202793 7.10303276 189.18968279 -1.7890625 187.71484375 C-12.45343561 185.29352827 -18.98950969 180.24550925 -24.94140625 171.140625 C-30.80491517 160.47969969 -33.34371475 147.92408387 -35.07421875 135.98828125 C-35.26302361 134.70158791 -35.26302361 134.70158791 -35.4556427 133.38890076 C-36.85808892 123.56008038 -37.86989723 113.70033427 -38.75 103.8125 C-38.83588379 102.85098022 -38.92176758 101.88946045 -39.01025391 100.89880371 C-40.20172463 87.26813176 -40.98154563 73.68344205 -41.0625 60 C-41.07276215 59.26556671 -41.08302429 58.53113342 -41.09359741 57.77444458 C-41.26981773 42.13240355 -39.08790995 24.2074124 -28.5625 11.9140625 C-20.62465567 4.28806205 -10.94209237 0.1493801 0 0 Z " fill="#FFFFFF" transform="translate(618.5625,747.75)"/>
<path d="M0 0 C2.85723315 2.63166212 3.87277368 4.22073881 4.5 8.0625 C3.86181512 11.81183614 3.07244442 12.7724778 0 15 C-2.6363059 16.17225052 -5.25543824 17.08514608 -8 18 C-7.43161254 23.62106938 -6.37684158 28.69062865 -4.65625 34.0625 C-4.41546219 34.83061005 -4.17467438 35.59872009 -3.92658997 36.3901062 C-3.12636759 38.92956951 -2.31416464 41.4649746 -1.5 44 C-1.21877289 44.88238342 -0.93754578 45.76476685 -0.64779663 46.67388916 C8.69236511 75.93322561 19.11954947 104.84552451 29.93579102 133.58862305 C33.05204055 141.9443645 35.69208119 150.38781874 38 159 C38.90621094 158.84273437 39.81242188 158.68546875 40.74609375 158.5234375 C44.77864576 157.87474366 47.91209201 157.61067543 52 158 C54.76224403 160.11576139 56.48473863 161.70137245 57.7746582 164.95239258 C58 167 58 167 57.12573242 168.7878418 C52.83311239 173.86407526 48.59245628 175.86350748 42.3125 177.8125 C41.42344971 178.10455322 40.53439941 178.39660645 39.6184082 178.69750977 C20.25988023 184.90518094 20.25988023 184.90518094 11.125 182.125 C9 181 9 181 8 179 C7.63515604 175.64343553 7.55618668 173.70606664 9.375 170.8125 C13.25940802 168.13040875 17.47314543 167.17662092 22 166 C20.61948902 157.09839348 17.65241024 148.99358442 14.55157471 140.57949829 C12.95465898 136.24154893 11.38558076 131.89351148 9.8125 127.546875 C9.33147324 126.2203466 9.33147324 126.2203466 8.84072876 124.86701965 C0.76331851 102.56971727 -6.82706695 80.23117905 -13.08105469 57.34619141 C-14.03987501 53.85480157 -15.02095397 50.37028167 -16.0078125 46.88671875 C-16.6511769 44.61201741 -17.29441124 42.33727928 -17.9375 40.0625 C-18.23245361 39.0194873 -18.52740723 37.97647461 -18.83129883 36.90185547 C-19.10224365 35.93521973 -19.37318848 34.96858398 -19.65234375 33.97265625 C-20.00800415 32.70820679 -20.00800415 32.70820679 -20.37084961 31.41821289 C-21.01067893 28.9589543 -21.52595445 26.49604608 -22 24 C-22.680625 24.33 -23.36125 24.66 -24.0625 25 C-27.61860562 26.21058915 -30.26715559 26.41476049 -34 26 C-36 24.4375 -36 24.4375 -37 22 C-37.20129452 18.44379675 -36.84659011 16.15003656 -34.703125 13.23828125 C-27.57080411 6.21641666 -9.96607299 -3.24980641 0 0 Z " fill="#FFFFFF" transform="translate(745,721)"/>
<path d="M0 0 C3.70604107 1.23534702 5.33748463 3.19735224 8 6 C8.33 6.33 8.66 6.66 9 7 C9.35432958 9.71819045 9.6491184 12.42180678 9.90795898 15.1496582 C9.99267456 16.0052533 10.07739014 16.86084839 10.16467285 17.74237061 C10.44603466 20.59477692 10.72105192 23.44775915 10.99609375 26.30078125 C11.19126187 28.29172055 11.3868295 30.28262072 11.58277893 32.27348328 C12.10049017 37.54428991 12.61287588 42.81560128 13.12414551 48.08703613 C13.63765623 53.37277588 14.15586151 58.65805473 14.67382812 63.94335938 C15.25968282 69.92387 15.84508497 75.90442161 16.42686462 81.8853302 C16.60545037 83.72083617 16.78404418 85.55634135 16.96264648 87.3918457 C17.0485073 88.27455297 17.13436811 89.15726023 17.22283077 90.06671619 C17.91577713 97.17430877 18.62550668 104.28017182 19.3478384 111.38483906 C20.78362145 125.60851199 20.29882704 139.17675656 13 152 C10 153 10 153 8.17578125 152.22265625 C6.45052083 151.1484375 4.72526042 150.07421875 3 149 C1.515 150.98 1.515 150.98 0 153 C-3.00200363 151.68449273 -4.76647903 150.40508802 -6.76171875 147.8125 C-7.24060547 147.19632813 -7.71949219 146.58015625 -8.21289062 145.9453125 C-8.69951172 145.30335938 -9.18613281 144.66140625 -9.6875 144 C-10.18572266 143.35804688 -10.68394531 142.71609375 -11.19726562 142.0546875 C-16.27814076 135.46402721 -16.56952151 131.21158022 -17 123 C-17.0407666 122.2570166 -17.0815332 121.5140332 -17.12353516 120.74853516 C-18.08410408 100.51936239 -14.27610243 81.16357951 -9.51171875 61.60546875 C-9.18160294 60.24785934 -9.18160294 60.24785934 -8.84481812 58.86282349 C-8.62242462 57.9483847 -8.40003113 57.03394592 -8.17089844 56.09179688 C-7.71799339 54.22789023 -7.26519408 52.36395789 -6.8125 50.5 C-6.58872681 49.5819458 -6.36495361 48.6638916 -6.13439941 47.71801758 C-2.28058219 31.76939221 -0.20672594 16.43471205 0 0 Z " fill="#FFFFFF" transform="translate(522,196)"/>
<path d="M0 0 C1.9375 1 1.9375 1 3 3 C3.45990326 6.16822246 3.69578355 7.98690346 3 11 C-1.48129063 16.45021833 -7.29748781 17.53308007 -14 19 C-1.0088708 45.77404281 14.27142682 71.29809756 29.48046875 96.85546875 C36.98329349 109.46796614 44.2786702 122.18267376 51.36181641 135.03613281 C52.43013867 136.96898412 53.50503543 138.8982205 54.58740234 140.82324219 C56.03290115 143.394361 57.45668489 145.97631241 58.875 148.5625 C59.2980542 149.3052417 59.7211084 150.0479834 60.15698242 150.81323242 C62.85130098 155.80927047 63.55772149 159.31972786 63 165 C61.375 168 61.375 168 59 170 C56 170.5625 56 170.5625 53 170 C48.62186039 166.58668949 46.52564834 161.71831159 44.0625 156.875 C43.64548828 156.070625 43.22847656 155.26625 42.79882812 154.4375 C40.66373101 150.30590559 38.58064537 146.15129638 36.5234375 141.98046875 C34.05018339 137.02335605 31.34141571 132.22834505 28.5625 127.4375 C24.00931912 119.52915607 19.51223686 111.59201254 15.0625 103.625 C11.12872998 96.58298624 7.18370471 89.54803644 3.20336914 82.53222656 C-2.38544097 72.68070607 -7.90354591 62.79203049 -13.375 52.875 C-13.70602722 52.27538452 -14.03705444 51.67576904 -14.37811279 51.0579834 C-18.97179305 42.73338805 -23.50726669 34.3793731 -28 26 C-29.07378906 26.37253906 -30.14757812 26.74507812 -31.25390625 27.12890625 C-32.68984396 27.60755215 -34.12605686 28.08537307 -35.5625 28.5625 C-36.26697266 28.80935547 -36.97144531 29.05621094 -37.69726562 29.31054688 C-42.475577 30.87395751 -45.99194768 31.25674957 -51 30 C-53 28 -53 28 -53.4375 25.1875 C-52.84482624 20.86944833 -51.30205043 19.79882653 -48 17 C-45.44078116 15.61004008 -42.78973075 14.57841877 -40.06640625 13.5546875 C-38.93307106 13.10985519 -38.93307106 13.10985519 -37.77684021 12.65603638 C-35.37667823 11.71660082 -32.9700978 10.7951902 -30.5625 9.875 C-28.1600028 8.94411377 -25.75899878 8.00951893 -23.35887146 7.07254028 C-21.87020621 6.4927457 -20.37993823 5.91704346 -18.88783264 5.34616089 C-15.73216742 4.12876835 -12.74383124 2.8689067 -9.72631836 1.32470703 C-6.25416184 -0.36239973 -3.81331541 -0.43169608 0 0 Z " fill="#FFFFFF" transform="translate(872,671)"/>
<path d="M0 0 C1.16015625 -0.03867188 1.16015625 -0.03867188 2.34375 -0.078125 C4.5 0.25 4.5 0.25 6.28125 1.48828125 C8.21145241 4.27841358 7.57750592 6.73320841 7.3125 9.99609375 C7.29113598 12.34868604 7.29113598 12.34868604 8.99609375 14.04711914 C11.84621626 18.22190087 10.72403942 23.37857874 10.5 28.25 C10.48066406 29.343125 10.46132813 30.43625 10.44140625 31.5625 C10.12005944 39.50853033 10.12005944 39.50853033 7.265625 42.921875 C2.76112636 45.08505231 -1.57114876 45.67372441 -6.5 46.25 C-7.30308594 46.36988281 -8.10617187 46.48976562 -8.93359375 46.61328125 C-13.56818181 47.02292422 -16.15335825 46.2290115 -19.8125 43.3125 C-25.01511865 38.14103476 -27.61910274 32.58310853 -28.0625 25.25 C-27.76652053 18.45304288 -24.43679526 13.68482833 -20.3125 8.5 C-14.56169048 3.89935238 -7.46041245 0.14920825 0 0 Z " fill="#FFFFFF" transform="translate(548.5,154.75)"/>
<path d="M0 0 C1.56939465 13.69924394 3.13421969 27.39900327 4.69381714 41.09936619 C5.41814699 47.4610966 6.14393041 53.82265414 6.87304688 60.18383789 C7.57674033 66.32369251 8.27660096 72.46397303 8.97381592 78.60456657 C9.24037461 80.94624312 9.50830968 83.28776342 9.77764893 85.62912178 C10.15489949 88.91062826 10.52723522 92.19265814 10.8984375 95.47485352 C11.01064636 96.44086487 11.12285522 97.40687622 11.23846436 98.40216064 C11.78761064 103.30528771 12.11951273 108.06625918 12 113 C8.04 114.32 4.08 115.64 0 117 C-2.79536013 93.24812018 -5.18338921 69.45770661 -7.5084343 45.65603638 C-7.74992795 43.18823629 -7.9927317 40.7205682 -8.23587036 38.25292969 C-8.62466986 34.3042342 -9.00977159 30.35519445 -9.3920536 26.40586281 C-9.5354075 24.92965827 -9.67985252 23.45355922 -9.82546043 21.9775753 C-10.0271679 19.92960281 -10.22456506 17.88125741 -10.42089844 15.83276367 C-10.53318787 14.67781906 -10.64547729 13.52287445 -10.76116943 12.33293152 C-11.00934969 8.86952303 -11.10925112 5.47085139 -11 2 C-8.56079856 -0.43920144 -3.28707881 0 0 0 Z " fill="#FFFFFF" transform="translate(531,40)"/>
<path d="M0 0 C3.8026029 2.0050088 5.61790841 3.42686262 8 7 C7.57589844 7.36609375 7.15179688 7.7321875 6.71484375 8.109375 C1.80120662 12.64504004 -1.17449454 17.4928589 -4.2265625 23.42578125 C-6.24623559 26.35742126 -7.62543212 27.04982304 -11 28 C-10.13375 28.556875 -9.2675 29.11375 -8.375 29.6875 C-6.07679514 31.19820809 -4.24903166 32.6842156 -2.1875 34.5625 C1.41843706 37.65601442 5.51522668 38.68094902 10 40 C11.67363977 40.64896236 13.34461042 41.30580437 15 42 C15 43.65 15 45.3 15 47 C-8.50262426 46.15437208 -8.50262426 46.15437208 -14.375 39.875 C-20.53399059 31.65719669 -23.24317038 22.19110605 -22 12 C-19.97039887 6.90702893 -15.85855655 3.54888505 -11.1796875 0.8828125 C-7.40078526 -0.64771063 -3.98029648 -0.80930243 0 0 Z " fill="#FFFFFF" transform="translate(274,299)"/>
<path d="M0 0 C3.5625 0.4375 3.5625 0.4375 5.2109375 2.34375 C7.08617886 6.63621 7.38181101 10.73716982 7.75 15.375 C7.83185547 16.25607422 7.91371094 17.13714844 7.99804688 18.04492188 C8.39713416 22.5220775 8.65885937 26.93825852 8.5625 31.4375 C6.75068595 31.63151633 4.93801468 31.81754375 3.125 32 C2.11566406 32.10441406 1.10632813 32.20882812 0.06640625 32.31640625 C-0.75988281 32.35636719 -1.58617187 32.39632812 -2.4375 32.4375 C-3.95927091 30.91572909 -3.75807007 29.39938068 -3.97265625 27.28125 C-4.05966797 26.42273438 -4.14667969 25.56421875 -4.23632812 24.6796875 C-4.3668457 23.32230469 -4.3668457 23.32230469 -4.5 21.9375 C-4.59087891 21.06351563 -4.68175781 20.18953125 -4.77539062 19.2890625 C-5.33216034 13.6460131 -5.69977864 8.10718298 -5.4375 2.4375 C-3.4375 0.4375 -3.4375 0.4375 0 0 Z " fill="#FFFFFF" transform="translate(521.4375,1.5625)"/>
<path d="M0 0 C2.76525675 2.33577546 3.56905257 4.05175998 4.0625 7.625 C4.54491903 13.85093619 1.80317305 17.3456406 -2 22 C-3.00367941 23.33056583 -4.0048026 24.66307819 -5 26 C-8.95820859 25.43454163 -11.6659053 24.19097652 -15 22 C-11.13260604 13.90501362 -6.02725199 6.61527657 0 0 Z " fill="#FFFFFF" transform="translate(283,308)"/>
<path d="M0 0 C3.625 1.5 3.625 1.5 6 3 C6.375 6.25 6.375 6.25 6 10 C2.40329258 13.79112404 -0.52122715 14.28759356 -5.6875 14.5 C-8.51171875 14.53125 -8.51171875 14.53125 -11 14 C-13.35893595 11.59000483 -13.9462877 10.36831291 -14.4375 7 C-14 4 -14 4 -12.625 1.625 C-8.55786929 -0.89274758 -4.6574892 -0.63710937 0 0 Z " fill="#FFFFFF" transform="translate(404,83)"/>
<path d="M0 0 C3.1945315 1.83515639 4.60228205 3.03056251 6 6.4375 C6 9 6 9 5.1875 11.8125 C2.57978612 14.42021388 1.76963724 14.38670951 -1.8125 14.5 C-6.17025265 14.25153165 -9.49533033 13.78576307 -13 11 C-14.0625 7.5 -14.0625 7.5 -14 4 C-10.88663373 -0.67004941 -5.15194635 -0.72308019 0 0 Z " fill="#FFFFFF" transform="translate(431,83)"/>
<path d="M0 0 C0 15.84 0 31.68 0 48 C-0.33 48 -0.66 48 -1 48 C-1.57693043 43.05696443 -2.14628467 38.11313283 -2.70898438 33.16845703 C-2.90097291 31.49049008 -3.09494059 29.81274824 -3.29101562 28.13525391 C-5.54118728 8.85954877 -5.54118728 8.85954877 -5 2 C-2 0 -2 0 0 0 Z " fill="#FFFFFF" transform="translate(560,199)"/>
<path d="M0 0 C1.98 0 3.96 0 6 0 C9.25601751 9.01531729 9.25601751 9.01531729 8.1875 13.125 C7.795625 13.74375 7.40375 14.3625 7 15 C0.68393782 15.47668394 0.68393782 15.47668394 -2.0625 13.5625 C-3.53915984 9.52629645 -2.26733581 6.00292651 -1 2 C-0.67 1.34 -0.34 0.68 0 0 Z " fill="#FFFFFF" transform="translate(410,93)"/>
<path d="M0 0 C2.60557491 0.28184585 5.20900398 0.57502711 7.8125 0.875 C8.55048828 0.95363281 9.28847656 1.03226562 10.04882812 1.11328125 C13.71506181 1.54460286 15.87951745 1.9196783 19 4 C19.25 6.5625 19.25 6.5625 19 9 C18 10 18 10 14.3125 10.25 C10.19667432 10.18373447 7.4873515 9.29848167 4 7 C0 2.68421053 0 2.68421053 0 0 Z " fill="#FFFFFF" transform="translate(269,347)"/>
<path d="M0 0 C1.32 0.33 2.64 0.66 4 1 C5.09848601 5.50471574 6.00605605 9.31155204 3.54296875 13.4453125 C1.78348389 15.44488999 0.03892389 17.28653814 -2 19 C-2.33 19 -2.66 19 -3 19 C-3.33693273 12.03672362 -2.3030887 6.56654456 0 0 Z " fill="#FFFFFF" transform="translate(524,147)"/>
</svg>
